<svg xmlns="http://www.w3.org/2000/svg" xmlns:xlink="http://www.w3.org/1999/xlink" width="500" zoomAndPan="magnify" viewBox="0 0 375 374.999991" height="500" preserveAspectRatio="xMidYMid meet" version="1.0"><defs><g/><clipPath id="8a34188a84"><path d="M 14.59375 102.863281 L 175.308594 102.863281 L 175.308594 234.730469 L 14.59375 234.730469 Z M 14.59375 102.863281 " clip-rule="nonzero"/></clipPath><clipPath id="b9909520d5"><path d="M 17.589844 146.839844 C 15.871094 153.601562 14.742188 161.289062 14.742188 168.832031 C 14.742188 176.375 15.707031 183.632812 17.429688 190.324219 C 17.480469 190.464844 17.480469 190.605469 17.535156 190.75 C 24.417969 215.871094 42.585938 234.375 64.6875 234.730469 L 175.308594 234.730469 L 175.308594 102.863281 L 64.769531 102.863281 C 42.476562 103.21875 24.308594 121.433594 17.589844 146.839844 Z M 17.589844 146.839844 " clip-rule="nonzero"/></clipPath><clipPath id="0696d48ee1"><path d="M 0.640625 0.863281 L 161.308594 0.863281 L 161.308594 132.730469 L 0.640625 132.730469 Z M 0.640625 0.863281 " clip-rule="nonzero"/></clipPath><clipPath id="a6e6b64d06"><path d="M 3.589844 44.839844 C 1.871094 51.601562 0.742188 59.289062 0.742188 66.832031 C 0.742188 74.375 1.707031 81.632812 3.429688 88.324219 C 3.480469 88.464844 3.480469 88.605469 3.535156 88.75 C 10.417969 113.871094 28.585938 132.375 50.6875 132.730469 L 161.308594 132.730469 L 161.308594 0.863281 L 50.769531 0.863281 C 28.476562 1.21875 10.308594 19.433594 3.589844 44.839844 Z M 3.589844 44.839844 " clip-rule="nonzero"/></clipPath><clipPath id="6b45daebed"><rect x="0" width="162" y="0" height="133"/></clipPath><clipPath id="b7bb4795de"><path d="M 118.34375 241.277344 L 175.339844 241.277344 L 175.339844 296.96875 L 118.34375 296.96875 Z M 118.34375 241.277344 " clip-rule="nonzero"/></clipPath><clipPath id="310e5c029e"><path d="M 119.953125 241.277344 L 173.707031 241.277344 C 174.59375 241.277344 175.316406 241.996094 175.316406 242.882812 L 175.316406 295.359375 C 175.316406 296.25 174.59375 296.96875 173.707031 296.96875 L 119.953125 296.96875 C 119.0625 296.96875 118.34375 296.25 118.34375 295.359375 L 118.34375 242.882812 C 118.34375 241.996094 119.0625 241.277344 119.953125 241.277344 Z M 119.953125 241.277344 " clip-rule="nonzero"/></clipPath><clipPath id="5b156241a2"><path d="M 0.34375 0.277344 L 57.339844 0.277344 L 57.339844 55.96875 L 0.34375 55.96875 Z M 0.34375 0.277344 " clip-rule="nonzero"/></clipPath><clipPath id="65e7dbe6d3"><path d="M 1.953125 0.277344 L 55.707031 0.277344 C 56.59375 0.277344 57.316406 0.996094 57.316406 1.882812 L 57.316406 54.359375 C 57.316406 55.25 56.59375 55.96875 55.707031 55.96875 L 1.953125 55.96875 C 1.0625 55.96875 0.34375 55.25 0.34375 54.359375 L 0.34375 1.882812 C 0.34375 0.996094 1.0625 0.277344 1.953125 0.277344 Z M 1.953125 0.277344 " clip-rule="nonzero"/></clipPath><clipPath id="ff6e5711d7"><rect x="0" width="58" y="0" height="56"/></clipPath><clipPath id="f96dfc7300"><rect x="0" width="183" y="0" height="273"/></clipPath></defs><g clip-path="url(#8a34188a84)"><g clip-path="url(#b9909520d5)"><g transform="matrix(1, 0, 0, 1, 14, 102)"><g clip-path="url(#6b45daebed)"><g clip-path="url(#0696d48ee1)"><g clip-path="url(#a6e6b64d06)"><path fill="#4910bc" d="M 161.308594 0.863281 L 161.308594 132.730469 L 0.59375 132.730469 L 0.59375 0.863281 Z M 161.308594 0.863281 " fill-opacity="1" fill-rule="nonzero"/></g></g></g></g></g></g><g clip-path="url(#b7bb4795de)"><g clip-path="url(#310e5c029e)"><g transform="matrix(1, 0, 0, 1, 118, 241)"><g clip-path="url(#ff6e5711d7)"><g clip-path="url(#5b156241a2)"><g clip-path="url(#65e7dbe6d3)"><path fill="#4910bc" d="M 0.34375 0.277344 L 57.339844 0.277344 L 57.339844 55.96875 L 0.34375 55.96875 Z M 0.34375 0.277344 " fill-opacity="1" fill-rule="nonzero"/></g></g></g></g></g></g><g transform="matrix(1, 0, 0, 1, 165, 63)"><g clip-path="url(#f96dfc7300)"><g fill="#000000" fill-opacity="1"><g transform="translate(1.075658, 231.139163)"><g><path d="M 71.359375 0 L 28.8125 0 C 25.34375 0 22.828125 -0.773438 21.265625 -2.328125 C 19.710938 -3.890625 18.9375 -6.40625 18.9375 -9.875 L 18.9375 -187.71875 C 18.9375 -191.195312 19.710938 -193.710938 21.265625 -195.265625 C 22.828125 -196.828125 25.34375 -197.609375 28.8125 -197.609375 L 112.796875 -197.609375 C 137.679688 -197.609375 154.695312 -192.664062 163.84375 -182.78125 C 173 -172.90625 177.578125 -160.007812 177.578125 -144.09375 L 177.578125 -108.953125 C 177.578125 -93.035156 173 -80.132812 163.84375 -70.25 C 154.695312 -60.375 137.679688 -55.4375 112.796875 -55.4375 L 81.234375 -55.4375 L 81.234375 -9.875 C 81.234375 -6.40625 80.457031 -3.890625 78.90625 -2.328125 C 77.351562 -0.773438 74.835938 0 71.359375 0 Z M 80.6875 -146.28125 L 80.6875 -104.84375 L 105.390625 -104.84375 C 110.691406 -104.84375 114.164062 -106.210938 115.8125 -108.953125 C 117.46875 -111.703125 118.296875 -114.816406 118.296875 -118.296875 L 118.296875 -132.828125 C 118.296875 -136.304688 117.46875 -139.414062 115.8125 -142.15625 C 114.164062 -144.90625 110.691406 -146.28125 105.390625 -146.28125 Z M 80.6875 -146.28125 "/></g></g></g></g></g></svg>