<svg xmlns="http://www.w3.org/2000/svg" xmlns:xlink="http://www.w3.org/1999/xlink" width="500" zoomAndPan="magnify" viewBox="0 0 375 374.999991" height="500" preserveAspectRatio="xMidYMid meet" version="1.0"><defs><g/><clipPath id="1a336e1b86"><path d="M 63.710938 160.140625 L 92.972656 160.140625 L 92.972656 184.152344 L 63.710938 184.152344 Z M 63.710938 160.140625 " clip-rule="nonzero"/></clipPath><clipPath id="e02046a6b7"><path d="M 64.253906 168.148438 C 63.941406 169.382812 63.738281 170.78125 63.738281 172.152344 C 63.738281 173.527344 63.914062 174.847656 64.226562 176.066406 C 64.234375 176.09375 64.234375 176.121094 64.246094 176.144531 C 65.5 180.71875 68.808594 184.089844 72.832031 184.152344 L 92.972656 184.152344 L 92.972656 160.140625 L 72.847656 160.140625 C 68.789062 160.207031 65.480469 163.523438 64.253906 168.148438 Z M 64.253906 168.148438 " clip-rule="nonzero"/></clipPath><clipPath id="ebad1bedd6"><path d="M 0.710938 0.140625 L 29.972656 0.140625 L 29.972656 24.152344 L 0.710938 24.152344 Z M 0.710938 0.140625 " clip-rule="nonzero"/></clipPath><clipPath id="06a58ecb28"><path d="M 1.253906 8.148438 C 0.941406 9.382812 0.738281 10.78125 0.738281 12.152344 C 0.738281 13.527344 0.914062 14.847656 1.226562 16.066406 C 1.234375 16.09375 1.234375 16.121094 1.246094 16.144531 C 2.5 20.71875 5.808594 24.089844 9.832031 24.152344 L 29.972656 24.152344 L 29.972656 0.140625 L 9.847656 0.140625 C 5.789062 0.207031 2.480469 3.523438 1.253906 8.148438 Z M 1.253906 8.148438 " clip-rule="nonzero"/></clipPath><clipPath id="53b1516534"><rect x="0" width="30" y="0" height="25"/></clipPath><clipPath id="17c96f426f"><path d="M 82.609375 185.34375 L 92.988281 185.34375 L 92.988281 195.484375 L 82.609375 195.484375 Z M 82.609375 185.34375 " clip-rule="nonzero"/></clipPath><clipPath id="ef639e4a9d"><path d="M 84.21875 185.34375 L 91.378906 185.34375 C 92.265625 185.34375 92.984375 186.066406 92.984375 186.953125 L 92.984375 193.878906 C 92.984375 194.765625 92.265625 195.484375 91.378906 195.484375 L 84.21875 195.484375 C 83.332031 195.484375 82.609375 194.765625 82.609375 193.878906 L 82.609375 186.953125 C 82.609375 186.066406 83.332031 185.34375 84.21875 185.34375 Z M 84.21875 185.34375 " clip-rule="nonzero"/></clipPath><clipPath id="1e5c95fd3f"><path d="M 0.609375 0.34375 L 10.988281 0.34375 L 10.988281 10.484375 L 0.609375 10.484375 Z M 0.609375 0.34375 " clip-rule="nonzero"/></clipPath><clipPath id="e681868694"><path d="M 2.21875 0.34375 L 9.378906 0.34375 C 10.265625 0.34375 10.984375 1.066406 10.984375 1.953125 L 10.984375 8.878906 C 10.984375 9.765625 10.265625 10.484375 9.378906 10.484375 L 2.21875 10.484375 C 1.332031 10.484375 0.609375 9.765625 0.609375 8.878906 L 0.609375 1.953125 C 0.609375 1.066406 1.332031 0.34375 2.21875 0.34375 Z M 2.21875 0.34375 " clip-rule="nonzero"/></clipPath><clipPath id="54de72ffcd"><rect x="0" width="11" y="0" height="11"/></clipPath><clipPath id="dd6df7ca93"><rect x="0" width="232" y="0" height="51"/></clipPath></defs><g clip-path="url(#1a336e1b86)"><g clip-path="url(#e02046a6b7)"><g transform="matrix(1, 0, 0, 1, 63, 160)"><g clip-path="url(#53b1516534)"><g clip-path="url(#ebad1bedd6)"><g clip-path="url(#06a58ecb28)"><path fill="#4910bc" d="M 29.972656 0.140625 L 29.972656 24.152344 L 0.710938 24.152344 L 0.710938 0.140625 Z M 29.972656 0.140625 " fill-opacity="1" fill-rule="nonzero"/></g></g></g></g></g></g><g clip-path="url(#17c96f426f)"><g clip-path="url(#ef639e4a9d)"><g transform="matrix(1, 0, 0, 1, 82, 185)"><g clip-path="url(#54de72ffcd)"><g clip-path="url(#1e5c95fd3f)"><g clip-path="url(#e681868694)"><path fill="#4910bc" d="M 0.609375 0.34375 L 10.988281 0.34375 L 10.988281 10.484375 L 0.609375 10.484375 Z M 0.609375 0.34375 " fill-opacity="1" fill-rule="nonzero"/></g></g></g></g></g></g><g transform="matrix(1, 0, 0, 1, 91, 152)"><g clip-path="url(#dd6df7ca93)"><g fill="#000000" fill-opacity="1"><g transform="translate(0.302713, 42.97107)"><g><path d="M 12.984375 0 L 5.25 0 C 4.613281 0 4.15625 -0.140625 3.875 -0.421875 C 3.59375 -0.703125 3.453125 -1.160156 3.453125 -1.796875 L 3.453125 -34.171875 C 3.453125 -34.804688 3.59375 -35.265625 3.875 -35.546875 C 4.15625 -35.835938 4.613281 -35.984375 5.25 -35.984375 L 20.53125 -35.984375 C 25.0625 -35.984375 28.160156 -35.082031 29.828125 -33.28125 C 31.492188 -31.476562 32.328125 -29.128906 32.328125 -26.234375 L 32.328125 -19.84375 C 32.328125 -16.9375 31.492188 -14.582031 29.828125 -12.78125 C 28.160156 -10.988281 25.0625 -10.09375 20.53125 -10.09375 L 14.796875 -10.09375 L 14.796875 -1.796875 C 14.796875 -1.160156 14.648438 -0.703125 14.359375 -0.421875 C 14.078125 -0.140625 13.617188 0 12.984375 0 Z M 14.6875 -26.640625 L 14.6875 -19.09375 L 19.1875 -19.09375 C 20.15625 -19.09375 20.785156 -19.34375 21.078125 -19.84375 C 21.378906 -20.34375 21.53125 -20.90625 21.53125 -21.53125 L 21.53125 -24.1875 C 21.53125 -24.820312 21.378906 -25.390625 21.078125 -25.890625 C 20.785156 -26.390625 20.15625 -26.640625 19.1875 -26.640625 Z M 14.6875 -26.640625 "/></g></g></g><g fill="#000000" fill-opacity="1"><g transform="translate(31.484762, 42.97107)"><g><path d="M 14.734375 -26.984375 L 14.734375 -20.59375 L 18.484375 -20.59375 C 19.347656 -20.59375 19.929688 -20.816406 20.234375 -21.265625 C 20.535156 -21.710938 20.6875 -22.269531 20.6875 -22.9375 L 20.6875 -24.640625 C 20.6875 -25.304688 20.535156 -25.863281 20.234375 -26.3125 C 19.929688 -26.757812 19.347656 -26.984375 18.484375 -26.984375 Z M 12.9375 0 L 5.25 0 C 4.613281 0 4.15625 -0.140625 3.875 -0.421875 C 3.59375 -0.703125 3.453125 -1.160156 3.453125 -1.796875 L 3.453125 -34.171875 C 3.453125 -34.804688 3.59375 -35.265625 3.875 -35.546875 C 4.15625 -35.835938 4.613281 -35.984375 5.25 -35.984375 L 21.890625 -35.984375 C 25.617188 -35.984375 28.191406 -35.207031 29.609375 -33.65625 C 31.023438 -32.101562 31.734375 -30.09375 31.734375 -27.625 L 31.734375 -25.328125 C 31.734375 -23.929688 31.523438 -22.738281 31.109375 -21.75 C 30.691406 -20.769531 29.96875 -20.066406 28.9375 -19.640625 C 30.726562 -19.441406 32.179688 -18.707031 33.296875 -17.4375 C 34.421875 -16.175781 34.984375 -14.492188 34.984375 -12.390625 L 34.984375 -1.796875 C 34.984375 -1.160156 34.835938 -0.703125 34.546875 -0.421875 C 34.265625 -0.140625 33.804688 0 33.171875 0 L 25.4375 0 C 24.800781 0 24.34375 -0.140625 24.0625 -0.421875 C 23.78125 -0.703125 23.640625 -1.160156 23.640625 -1.796875 L 23.640625 -9.4375 C 23.640625 -10.175781 23.492188 -10.71875 23.203125 -11.0625 C 22.921875 -11.414062 22.429688 -11.59375 21.734375 -11.59375 L 14.734375 -11.59375 L 14.734375 -1.796875 C 14.734375 -1.160156 14.59375 -0.703125 14.3125 -0.421875 C 14.03125 -0.140625 13.570312 0 12.9375 0 Z M 12.9375 0 "/></g></g></g><g fill="#000000" fill-opacity="1"><g transform="translate(65.715103, 42.97107)"><g><path d="M 4.453125 0 C 3.816406 0 3.351562 -0.140625 3.0625 -0.421875 C 2.78125 -0.703125 2.640625 -1.160156 2.640625 -1.796875 L 2.640625 -7.75 C 2.640625 -8.375 2.78125 -8.828125 3.0625 -9.109375 C 3.351562 -9.398438 3.816406 -9.546875 4.453125 -9.546875 L 9.390625 -9.546875 L 9.390625 -26.328125 L 4.453125 -26.328125 C 3.816406 -26.328125 3.351562 -26.46875 3.0625 -26.75 C 2.78125 -27.039062 2.640625 -27.5 2.640625 -28.125 L 2.640625 -34.171875 C 2.640625 -34.804688 2.78125 -35.265625 3.0625 -35.546875 C 3.351562 -35.835938 3.816406 -35.984375 4.453125 -35.984375 L 25.734375 -35.984375 C 26.367188 -35.984375 26.828125 -35.835938 27.109375 -35.546875 C 27.390625 -35.265625 27.53125 -34.804688 27.53125 -34.171875 L 27.53125 -28.125 C 27.53125 -27.5 27.390625 -27.039062 27.109375 -26.75 C 26.828125 -26.46875 26.367188 -26.328125 25.734375 -26.328125 L 20.890625 -26.328125 L 20.890625 -9.546875 L 25.734375 -9.546875 C 26.367188 -9.546875 26.828125 -9.398438 27.109375 -9.109375 C 27.390625 -8.828125 27.53125 -8.375 27.53125 -7.75 L 27.53125 -1.796875 C 27.53125 -1.160156 27.390625 -0.703125 27.109375 -0.421875 C 26.828125 -0.140625 26.367188 0 25.734375 0 Z M 4.453125 0 "/></g></g></g><g fill="#000000" fill-opacity="1"><g transform="translate(93.049312, 42.97107)"><g><path d="M 12.6875 0 L 5.25 0 C 4.613281 0 4.15625 -0.140625 3.875 -0.421875 C 3.59375 -0.703125 3.453125 -1.160156 3.453125 -1.796875 L 3.453125 -34.171875 C 3.453125 -34.804688 3.59375 -35.265625 3.875 -35.546875 C 4.15625 -35.835938 4.613281 -35.984375 5.25 -35.984375 L 13.296875 -35.984375 C 13.828125 -35.984375 14.265625 -35.863281 14.609375 -35.625 C 14.960938 -35.394531 15.289062 -35.015625 15.59375 -34.484375 L 20.09375 -26.328125 C 20.257812 -26.035156 20.398438 -25.820312 20.515625 -25.6875 C 20.628906 -25.550781 20.785156 -25.484375 20.984375 -25.484375 L 21.4375 -25.484375 C 21.632812 -25.484375 21.789062 -25.550781 21.90625 -25.6875 C 22.03125 -25.820312 22.175781 -26.035156 22.34375 -26.328125 L 26.78125 -34.484375 C 27.082031 -35.015625 27.40625 -35.394531 27.75 -35.625 C 28.101562 -35.863281 28.546875 -35.984375 29.078125 -35.984375 L 37.171875 -35.984375 C 37.804688 -35.984375 38.265625 -35.835938 38.546875 -35.546875 C 38.828125 -35.265625 38.96875 -34.804688 38.96875 -34.171875 L 38.96875 -1.796875 C 38.96875 -1.160156 38.828125 -0.703125 38.546875 -0.421875 C 38.265625 -0.140625 37.804688 0 37.171875 0 L 29.484375 0 C 28.847656 0 28.390625 -0.140625 28.109375 -0.421875 C 27.828125 -0.703125 27.6875 -1.160156 27.6875 -1.796875 L 27.6875 -19.390625 L 24.734375 -13.9375 C 24.429688 -13.375 24.070312 -12.96875 23.65625 -12.71875 C 23.238281 -12.46875 22.71875 -12.34375 22.09375 -12.34375 L 20.09375 -12.34375 C 19.457031 -12.34375 18.929688 -12.46875 18.515625 -12.71875 C 18.097656 -12.96875 17.738281 -13.375 17.4375 -13.9375 L 14.484375 -19.390625 L 14.484375 -1.796875 C 14.484375 -1.160156 14.34375 -0.703125 14.0625 -0.421875 C 13.78125 -0.140625 13.320312 0 12.6875 0 Z M 12.6875 0 "/></g></g></g><g fill="#000000" fill-opacity="1"><g transform="translate(132.576687, 42.97107)"><g><path d="M 28.4375 0 L 5.25 0 C 4.613281 0 4.15625 -0.140625 3.875 -0.421875 C 3.59375 -0.703125 3.453125 -1.160156 3.453125 -1.796875 L 3.453125 -34.171875 C 3.453125 -34.804688 3.59375 -35.265625 3.875 -35.546875 C 4.15625 -35.835938 4.613281 -35.984375 5.25 -35.984375 L 28.4375 -35.984375 C 29.0625 -35.984375 29.515625 -35.835938 29.796875 -35.546875 C 30.085938 -35.265625 30.234375 -34.804688 30.234375 -34.171875 L 30.234375 -28.328125 C 30.234375 -27.703125 30.085938 -27.242188 29.796875 -26.953125 C 29.515625 -26.671875 29.0625 -26.53125 28.4375 -26.53125 L 14.640625 -26.53125 L 14.640625 -22.6875 L 24.390625 -22.6875 C 25.015625 -22.6875 25.46875 -22.546875 25.75 -22.265625 C 26.039062 -21.984375 26.1875 -21.523438 26.1875 -20.890625 L 26.1875 -15.546875 C 26.1875 -14.910156 26.039062 -14.445312 25.75 -14.15625 C 25.46875 -13.875 25.015625 -13.734375 24.390625 -13.734375 L 14.640625 -13.734375 L 14.640625 -9.4375 L 28.4375 -9.4375 C 29.0625 -9.4375 29.515625 -9.296875 29.796875 -9.015625 C 30.085938 -8.734375 30.234375 -8.273438 30.234375 -7.640625 L 30.234375 -1.796875 C 30.234375 -1.160156 30.085938 -0.703125 29.796875 -0.421875 C 29.515625 -0.140625 29.0625 0 28.4375 0 Z M 28.4375 0 "/></g></g></g><g fill="#000000" fill-opacity="1"><g transform="translate(162.359521, 42.97107)"><g><path d="M 14.734375 -26.984375 L 14.734375 -20.59375 L 18.484375 -20.59375 C 19.347656 -20.59375 19.929688 -20.816406 20.234375 -21.265625 C 20.535156 -21.710938 20.6875 -22.269531 20.6875 -22.9375 L 20.6875 -24.640625 C 20.6875 -25.304688 20.535156 -25.863281 20.234375 -26.3125 C 19.929688 -26.757812 19.347656 -26.984375 18.484375 -26.984375 Z M 12.9375 0 L 5.25 0 C 4.613281 0 4.15625 -0.140625 3.875 -0.421875 C 3.59375 -0.703125 3.453125 -1.160156 3.453125 -1.796875 L 3.453125 -34.171875 C 3.453125 -34.804688 3.59375 -35.265625 3.875 -35.546875 C 4.15625 -35.835938 4.613281 -35.984375 5.25 -35.984375 L 21.890625 -35.984375 C 25.617188 -35.984375 28.191406 -35.207031 29.609375 -33.65625 C 31.023438 -32.101562 31.734375 -30.09375 31.734375 -27.625 L 31.734375 -25.328125 C 31.734375 -23.929688 31.523438 -22.738281 31.109375 -21.75 C 30.691406 -20.769531 29.96875 -20.066406 28.9375 -19.640625 C 30.726562 -19.441406 32.179688 -18.707031 33.296875 -17.4375 C 34.421875 -16.175781 34.984375 -14.492188 34.984375 -12.390625 L 34.984375 -1.796875 C 34.984375 -1.160156 34.835938 -0.703125 34.546875 -0.421875 C 34.265625 -0.140625 33.804688 0 33.171875 0 L 25.4375 0 C 24.800781 0 24.34375 -0.140625 24.0625 -0.421875 C 23.78125 -0.703125 23.640625 -1.160156 23.640625 -1.796875 L 23.640625 -9.4375 C 23.640625 -10.175781 23.492188 -10.71875 23.203125 -11.0625 C 22.921875 -11.414062 22.429688 -11.59375 21.734375 -11.59375 L 14.734375 -11.59375 L 14.734375 -1.796875 C 14.734375 -1.160156 14.59375 -0.703125 14.3125 -0.421875 C 14.03125 -0.140625 13.570312 0 12.9375 0 Z M 12.9375 0 "/></g></g></g><g fill="#000000" fill-opacity="1"><g transform="translate(196.589849, 42.97107)"><g><path d="M 16.484375 -25.484375 L 14.140625 -17.890625 L 21.984375 -17.890625 L 19.640625 -25.484375 C 19.503906 -25.785156 19.359375 -26 19.203125 -26.125 C 19.054688 -26.257812 18.882812 -26.328125 18.6875 -26.328125 L 17.4375 -26.328125 C 17.238281 -26.328125 17.0625 -26.257812 16.90625 -26.125 C 16.757812 -26 16.617188 -25.785156 16.484375 -25.484375 Z M 13.640625 -1.796875 C 13.640625 -1.160156 13.5 -0.703125 13.21875 -0.421875 C 12.9375 -0.140625 12.476562 0 11.84375 0 L 4.5 0 C 3.863281 0 3.40625 -0.140625 3.125 -0.421875 C 2.84375 -0.703125 2.703125 -1.160156 2.703125 -1.796875 L 2.703125 -14.984375 C 2.703125 -15.984375 2.859375 -17.132812 3.171875 -18.4375 C 3.484375 -19.738281 3.972656 -21.253906 4.640625 -22.984375 L 9 -34.328125 C 9.195312 -34.890625 9.503906 -35.304688 9.921875 -35.578125 C 10.335938 -35.847656 10.878906 -35.984375 11.546875 -35.984375 L 24.984375 -35.984375 C 25.617188 -35.984375 26.144531 -35.847656 26.5625 -35.578125 C 26.976562 -35.304688 27.285156 -34.890625 27.484375 -34.328125 L 31.828125 -22.984375 C 32.492188 -21.253906 32.984375 -19.738281 33.296875 -18.4375 C 33.617188 -17.132812 33.78125 -15.984375 33.78125 -14.984375 L 33.78125 -1.796875 C 33.78125 -1.160156 33.632812 -0.703125 33.34375 -0.421875 C 33.0625 -0.140625 32.609375 0 31.984375 0 L 24.4375 0 C 23.769531 0 23.273438 -0.140625 22.953125 -0.421875 C 22.640625 -0.703125 22.484375 -1.160156 22.484375 -1.796875 L 22.484375 -8.796875 L 13.640625 -8.796875 Z M 13.640625 -1.796875 "/></g></g></g></g></g><g fill="#1d1f21" fill-opacity="1"><g transform="translate(134.054894, 206.982248)"><g><path d="M 3.734375 0 L 2.40625 0 L 2.40625 -6.109375 L 0.234375 -6.109375 L 0.234375 -7.3125 L 5.90625 -7.3125 L 5.90625 -6.109375 L 3.734375 -6.109375 Z M 3.734375 0 "/></g></g></g><g fill="#1d1f21" fill-opacity="1"><g transform="translate(147.895023, 206.982248)"><g><path d="M 5.921875 0 L 0.875 0 L 0.875 -7.3125 L 5.875 -7.3125 L 5.875 -6.109375 L 2.203125 -6.109375 L 2.203125 -4.28125 L 5.375 -4.28125 L 5.375 -3.140625 L 2.203125 -3.140625 L 2.203125 -1.203125 L 5.921875 -1.203125 Z M 5.921875 0 "/></g></g></g><g fill="#1d1f21" fill-opacity="1"><g transform="translate(161.863966, 206.982248)"><g><path d="M 4.21875 0.15625 C 3.78125 0.15625 3.367188 0.09375 2.984375 -0.03125 C 2.597656 -0.15625 2.242188 -0.332031 1.921875 -0.5625 C 1.597656 -0.800781 1.316406 -1.078125 1.078125 -1.390625 C 0.847656 -1.710938 0.671875 -2.066406 0.546875 -2.453125 C 0.421875 -2.835938 0.359375 -3.238281 0.359375 -3.65625 C 0.359375 -4.082031 0.421875 -4.488281 0.546875 -4.875 C 0.671875 -5.257812 0.847656 -5.609375 1.078125 -5.921875 C 1.316406 -6.234375 1.597656 -6.503906 1.921875 -6.734375 C 2.242188 -6.972656 2.597656 -7.15625 2.984375 -7.28125 C 3.367188 -7.414062 3.78125 -7.484375 4.21875 -7.484375 C 4.601562 -7.484375 4.984375 -7.425781 5.359375 -7.3125 C 5.742188 -7.195312 6.097656 -7.019531 6.421875 -6.78125 C 6.753906 -6.539062 7.035156 -6.242188 7.265625 -5.890625 C 7.492188 -5.535156 7.648438 -5.113281 7.734375 -4.625 L 6.375 -4.625 C 6.269531 -5 6.113281 -5.304688 5.90625 -5.546875 C 5.695312 -5.785156 5.441406 -5.960938 5.140625 -6.078125 C 4.835938 -6.191406 4.515625 -6.25 4.171875 -6.25 C 3.828125 -6.25 3.503906 -6.1875 3.203125 -6.0625 C 2.898438 -5.9375 2.632812 -5.757812 2.40625 -5.53125 C 2.1875 -5.300781 2.007812 -5.03125 1.875 -4.71875 C 1.75 -4.40625 1.6875 -4.050781 1.6875 -3.65625 C 1.6875 -3.257812 1.75 -2.898438 1.875 -2.578125 C 2.007812 -2.265625 2.1875 -1.992188 2.40625 -1.765625 C 2.632812 -1.546875 2.898438 -1.375 3.203125 -1.25 C 3.503906 -1.132812 3.828125 -1.078125 4.171875 -1.078125 C 4.515625 -1.078125 4.832031 -1.132812 5.125 -1.25 C 5.425781 -1.363281 5.679688 -1.539062 5.890625 -1.78125 C 6.109375 -2.019531 6.265625 -2.328125 6.359375 -2.703125 L 7.734375 -2.703125 C 7.648438 -2.210938 7.492188 -1.785156 7.265625 -1.421875 C 7.035156 -1.066406 6.753906 -0.769531 6.421875 -0.53125 C 6.097656 -0.300781 5.742188 -0.128906 5.359375 -0.015625 C 4.984375 0.0976562 4.601562 0.15625 4.21875 0.15625 Z M 4.21875 0.15625 "/></g></g></g><g fill="#1d1f21" fill-opacity="1"><g transform="translate(177.652418, 206.982248)"><g><path d="M 2.203125 0 L 0.875 0 L 0.875 -7.3125 L 2.203125 -7.3125 L 2.203125 -4.28125 L 5.890625 -4.28125 L 5.890625 -7.3125 L 7.234375 -7.3125 L 7.234375 0 L 5.890625 0 L 5.890625 -3.078125 L 2.203125 -3.078125 Z M 2.203125 0 "/></g></g></g><g fill="#1d1f21" fill-opacity="1"><g transform="translate(193.451603, 206.982248)"><g/></g></g><g fill="#1d1f21" fill-opacity="1"><g transform="translate(203.829837, 206.982248)"><g><path d="M 5.5 0 L 0.875 0 L 0.875 -7.3125 L 2.203125 -7.3125 L 2.203125 -1.203125 L 5.5 -1.203125 Z M 5.5 0 "/></g></g></g><g fill="#1d1f21" fill-opacity="1"><g transform="translate(217.245951, 206.982248)"><g><path d="M 7.390625 0 L 5.984375 0 L 5.40625 -1.40625 L 2.046875 -1.40625 L 1.46875 0 L 0.046875 0 L 3.09375 -7.3125 L 4.359375 -7.3125 Z M 3.671875 -5.40625 L 2.5 -2.53125 L 4.953125 -2.53125 L 3.765625 -5.40625 L 3.734375 -5.59375 L 3.71875 -5.59375 Z M 3.671875 -5.40625 "/></g></g></g><g fill="#1d1f21" fill-opacity="1"><g transform="translate(232.390329, 206.982248)"><g><path d="M 4.359375 0 L 0.875 0 L 0.875 -7.3125 L 4.0625 -7.3125 C 4.5 -7.3125 4.882812 -7.226562 5.21875 -7.0625 C 5.550781 -6.90625 5.8125 -6.675781 6 -6.375 C 6.1875 -6.082031 6.28125 -5.734375 6.28125 -5.328125 C 6.28125 -5.109375 6.238281 -4.898438 6.15625 -4.703125 C 6.070312 -4.515625 5.957031 -4.34375 5.8125 -4.1875 C 5.675781 -4.039062 5.523438 -3.9375 5.359375 -3.875 C 5.597656 -3.789062 5.816406 -3.660156 6.015625 -3.484375 C 6.222656 -3.316406 6.390625 -3.113281 6.515625 -2.875 C 6.640625 -2.644531 6.703125 -2.394531 6.703125 -2.125 C 6.703125 -1.757812 6.632812 -1.441406 6.5 -1.171875 C 6.375 -0.910156 6.195312 -0.691406 5.96875 -0.515625 C 5.75 -0.347656 5.5 -0.21875 5.21875 -0.125 C 4.9375 -0.0390625 4.648438 0 4.359375 0 Z M 2.21875 -6.15625 L 2.21875 -4.25 L 3.984375 -4.25 C 4.171875 -4.25 4.332031 -4.289062 4.46875 -4.375 C 4.613281 -4.457031 4.726562 -4.570312 4.8125 -4.71875 C 4.894531 -4.863281 4.9375 -5.023438 4.9375 -5.203125 C 4.9375 -5.390625 4.894531 -5.550781 4.8125 -5.6875 C 4.726562 -5.832031 4.613281 -5.945312 4.46875 -6.03125 C 4.332031 -6.113281 4.175781 -6.15625 4 -6.15625 Z M 2.21875 -3.25 L 2.21875 -1.15625 L 4.25 -1.15625 C 4.457031 -1.15625 4.640625 -1.195312 4.796875 -1.28125 C 4.960938 -1.375 5.09375 -1.5 5.1875 -1.65625 C 5.28125 -1.820312 5.328125 -2.007812 5.328125 -2.21875 C 5.328125 -2.414062 5.28125 -2.585938 5.1875 -2.734375 C 5.09375 -2.890625 4.960938 -3.015625 4.796875 -3.109375 C 4.640625 -3.203125 4.457031 -3.25 4.25 -3.25 Z M 2.21875 -3.25 "/></g></g></g><g fill="#1d1f21" fill-opacity="1"><g transform="translate(247.126794, 206.982248)"><g><path d="M 3.328125 0.171875 C 2.804688 0.171875 2.359375 0.101562 1.984375 -0.03125 C 1.609375 -0.164062 1.300781 -0.347656 1.0625 -0.578125 C 0.820312 -0.804688 0.644531 -1.0625 0.53125 -1.34375 C 0.414062 -1.625 0.359375 -1.90625 0.359375 -2.1875 L 1.703125 -2.1875 C 1.703125 -1.96875 1.765625 -1.765625 1.890625 -1.578125 C 2.015625 -1.390625 2.195312 -1.238281 2.4375 -1.125 C 2.6875 -1.019531 2.984375 -0.96875 3.328125 -0.96875 C 4.410156 -0.96875 4.953125 -1.328125 4.953125 -2.046875 C 4.953125 -2.273438 4.878906 -2.457031 4.734375 -2.59375 C 4.597656 -2.738281 4.40625 -2.851562 4.15625 -2.9375 C 3.90625 -3.03125 3.613281 -3.109375 3.28125 -3.171875 C 3.03125 -3.222656 2.773438 -3.285156 2.515625 -3.359375 C 2.265625 -3.429688 2.019531 -3.519531 1.78125 -3.625 C 1.550781 -3.726562 1.34375 -3.859375 1.15625 -4.015625 C 0.96875 -4.179688 0.816406 -4.375 0.703125 -4.59375 C 0.597656 -4.8125 0.546875 -5.070312 0.546875 -5.375 C 0.546875 -5.78125 0.640625 -6.140625 0.828125 -6.453125 C 1.023438 -6.765625 1.328125 -7.015625 1.734375 -7.203125 C 2.140625 -7.390625 2.65625 -7.484375 3.28125 -7.484375 C 3.894531 -7.484375 4.40625 -7.390625 4.8125 -7.203125 C 5.21875 -7.015625 5.519531 -6.753906 5.71875 -6.421875 C 5.925781 -6.097656 6.03125 -5.71875 6.03125 -5.28125 L 4.703125 -5.28125 C 4.703125 -5.46875 4.648438 -5.640625 4.546875 -5.796875 C 4.453125 -5.953125 4.296875 -6.078125 4.078125 -6.171875 C 3.867188 -6.265625 3.597656 -6.3125 3.265625 -6.3125 C 2.992188 -6.3125 2.769531 -6.285156 2.59375 -6.234375 C 2.414062 -6.179688 2.273438 -6.109375 2.171875 -6.015625 C 2.066406 -5.921875 1.992188 -5.816406 1.953125 -5.703125 C 1.910156 -5.597656 1.890625 -5.488281 1.890625 -5.375 C 1.890625 -5.070312 2.039062 -4.835938 2.34375 -4.671875 C 2.644531 -4.515625 3.101562 -4.382812 3.71875 -4.28125 C 4.0625 -4.21875 4.382812 -4.132812 4.6875 -4.03125 C 5 -3.925781 5.273438 -3.789062 5.515625 -3.625 C 5.765625 -3.457031 5.957031 -3.242188 6.09375 -2.984375 C 6.238281 -2.722656 6.3125 -2.410156 6.3125 -2.046875 C 6.3125 -1.578125 6.1875 -1.175781 5.9375 -0.84375 C 5.695312 -0.507812 5.351562 -0.253906 4.90625 -0.078125 C 4.457031 0.0859375 3.929688 0.171875 3.328125 0.171875 Z M 3.328125 0.171875 "/></g></g></g></svg>